<svg width="1225" height="399" viewBox="0 0 1225 399" fill="none" xmlns="http://www.w3.org/2000/svg">
<path d="M1176.5 222V222.5H1177H1179.03H1179.53V222V215.859H1182.69C1182.73 215.859 1182.78 215.859 1182.82 215.859L1186.2 222.234L1186.35 222.5H1186.65H1189H1189.84L1189.44 221.763L1185.92 215.243C1185.99 215.212 1186.05 215.18 1186.12 215.146L1186.12 215.145C1187.04 214.659 1187.73 213.98 1188.18 213.108C1188.63 212.252 1188.85 211.283 1188.85 210.213C1188.85 209.143 1188.63 208.169 1188.19 207.303C1187.73 206.42 1187.04 205.732 1186.11 205.24C1185.18 204.735 1184.02 204.5 1182.66 204.5H1177H1176.5V205V222ZM1182.62 213H1179.53V207.326H1182.59C1183.45 207.326 1184.09 207.461 1184.55 207.694L1184.55 207.694L1184.55 207.696C1185.01 207.928 1185.33 208.246 1185.53 208.649C1185.74 209.077 1185.85 209.594 1185.85 210.213C1185.85 210.833 1185.74 211.338 1185.53 211.746L1185.53 211.748C1185.34 212.125 1185.03 212.427 1184.56 212.651L1184.56 212.651L1184.56 212.652C1184.11 212.872 1183.47 213 1182.62 213Z" fill="#CC0A20" stroke="#CC0A20"/>
<circle cx="1182" cy="213" r="19" stroke="#CC0A20" stroke-width="4"/>
<path fill-rule="evenodd" clip-rule="evenodd" d="M989.539 249.474C984.258 253.514 981.089 257.051 975.808 261.092C968.417 268.167 954.163 274.731 951.523 274.731C947.83 273.72 941.491 268.166 940.439 261.597C938.321 264.629 927.767 271.196 919.846 270.185C912.984 269.68 907.703 266.142 904.534 260.586C904.534 260.586 889.228 271.701 874.974 270.69C864.413 269.68 865.995 256.041 868.106 249.474C868.106 253.009 837.488 270.69 831.154 270.185C824.29 269.68 820.596 266.142 820.596 252.504C812.676 257.557 807.398 262.102 800.532 268.669C794.725 274.731 789.975 279.279 784.167 286.351L776.248 279.784L786.806 258.567C779.945 263.113 775.192 266.142 768.328 270.69C761.994 274.731 758.297 278.771 750.905 282.308C746.683 283.825 741.404 283.825 738.763 280.29C735.069 276.752 740.347 261.597 740.875 261.597C734.541 265.637 728.205 270.185 723.452 276.247C719.23 280.29 715.535 289.886 712.366 290.392C709.726 290.392 705.503 290.897 704.975 287.865C703.391 284.33 708.141 263.619 710.254 260.586L701.809 266.65C695.999 271.701 692.305 275.236 687.026 279.279C678.579 285.846 672.241 291.4 661.683 293.423C655.348 294.937 649.541 295.442 643.734 292.918C636.871 290.897 631.59 285.846 628.423 278.771C625.255 281.3 622.617 282.814 616.807 284.33C612.056 285.846 607.834 287.36 604.665 282.814C600.442 276.752 603.609 265.132 604.665 264.124C603.08 265.132 593.051 273.217 587.772 279.279C584.075 283.825 579.853 287.865 576.156 292.413L566.126 287.865L577.74 254.022C571.405 260.586 565.598 265.132 558.207 270.185C541.314 281.3 528.644 294.434 516.499 294.434C508.58 294.434 503.301 290.897 501.191 282.814C499.607 275.742 500.135 265.637 504.885 258.062C512.805 245.939 516.499 239.875 524.419 230.278C532.866 221.69 539.73 216.134 550.816 212.596C555.569 211.083 560.847 214.113 563.486 218.155C566.654 222.701 566.126 229.268 565.598 235.329C564.014 243.412 559.791 249.474 553.456 255.032C549.231 257.557 545.008 262.102 540.258 262.102C534.976 262.102 529.698 258.567 527.588 253.514C525.473 254.022 517.027 265.637 516.499 273.217C515.971 277.257 515.971 282.814 520.194 284.33C522.834 285.34 525.473 283.319 528.644 282.814C537.617 279.279 543.424 273.72 550.816 268.669C566.655 257.557 576.156 248.969 588.3 234.824L597.276 240.38L586.188 268.669C594.636 261.597 600.442 256.041 607.834 248.463C616.807 238.864 623.673 232.805 631.59 222.195L640.037 228.257C633.705 235.834 631.062 242.907 626.311 250.99C622.088 258.567 615.225 270.69 619.45 273.72C621.032 276.247 625.255 272.712 628.423 270.69C632.648 259.578 637.399 252.504 645.847 242.907C655.348 232.805 665.908 224.722 676.466 219.166C682.273 216.134 688.082 215.123 692.305 218.66C697.055 221.185 699.168 226.741 697.584 232.299C695.471 239.875 691.249 243.412 683.857 245.939C680.688 247.958 675.938 247.452 673.828 244.928C672.241 241.393 672.241 237.351 673.828 234.824C669.074 236.34 659.573 242.907 653.764 250.99C647.957 258.567 643.206 264.629 643.206 274.731C643.206 280.29 648.485 285.34 654.292 285.846C664.852 287.865 674.884 280.795 683.857 275.236C688.082 271.701 691.249 269.175 694.943 265.637L697.584 263.619C698.64 262.607 699.168 262.102 701.809 260.084C702.863 258.567 703.919 257.557 704.447 256.546V257.051C706.56 255.032 708.141 253.009 709.726 250.99C718.702 238.864 722.396 228.257 729.79 214.113C773.079 137.329 811.62 75.7039 850.689 21.1447L858.603 28.2171C815.315 86.3095 792.615 125.204 756.186 187.845C742.46 213.101 724.508 245.434 722.924 256.041C722.924 261.092 723.452 261.092 723.98 265.637C730.316 260.084 737.707 253.009 744.57 245.434C751.961 236.34 757.768 230.784 764.631 222.195L775.72 231.289C772.023 234.824 764.631 245.434 760.409 253.514C756.714 258.567 751.433 268.669 755.13 270.185C758.297 271.196 774.136 259.578 783.639 251.495C794.725 242.401 802.645 235.329 811.62 223.206L823.762 223.711L811.62 248.463C817.953 243.412 820.596 239.875 827.985 234.319C834.323 230.784 835.376 229.773 838.546 226.741C839.599 225.228 844.879 221.69 847.519 223.711C852.271 226.741 848.578 233.816 846.467 236.34C842.768 242.401 838.546 247.452 837.488 253.514C834.851 266.142 859.133 247.452 869.164 238.864C878.138 232.299 889.757 220.176 898.201 213.607C900.312 211.588 905.592 211.588 907.18 214.618C909.814 217.65 907.18 220.176 904.534 223.206C897.142 232.805 885.006 248.463 882.889 255.032C880.778 260.084 882.889 260.084 883.947 261.597C886.058 263.113 890.81 260.586 894.508 258.567C898.73 256.546 905.592 253.514 906.122 253.009C909.285 245.434 917.735 236.845 926.708 229.773C937.269 221.69 942.02 218.66 954.163 213.607C960.496 211.083 969.475 208.051 973.168 213.607C974.756 216.639 973.168 221.69 972.645 223.206C974.226 222.195 977.919 221.69 978.448 223.711C981.089 228.257 977.919 230.278 976.867 233.31C973.697 240.886 967.887 246.444 964.195 252.504C963.142 254.022 962.613 257.051 964.195 257.557C967.887 258.062 975.279 252.504 981.618 246.444L998.512 231.289C1004.32 225.73 1009.07 220.176 1014.88 214.618C1016.46 213.607 1028.08 185.32 1039.69 179.257C1042.86 177.237 1049.72 181.278 1049.72 185.826C1050.77 194.917 1029.66 213.101 1030.72 214.618C1037.58 219.166 1042.86 219.166 1046.55 225.228C1051.3 235.329 1032.83 247.958 1035.47 254.022C1037.58 258.062 1063.45 241.899 1077.18 228.257C1078.23 227.246 1108.32 171.678 1128.38 137.329C1158.48 86.3094 1178.54 56.5066 1211.8 7L1225 13.572C1191.74 60.5463 1172.73 90.349 1142.64 140.362C1125.22 170.671 1113.61 189.866 1097.23 221.185C1106.21 216.639 1112.02 213.607 1121.52 210.072C1133.13 205.526 1141.06 203 1153.73 199.968L1157.42 210.578C1145.8 213.101 1137.36 216.134 1125.74 221.185C1114.66 226.236 1108.32 229.268 1098.29 235.329C1106.74 247.958 1113.61 255.535 1124.69 266.142C1137.36 279.279 1146.86 287.865 1162.7 297.969L1153.2 308.576C1136.83 297.969 1126.8 289.886 1112.55 276.247C1101.46 265.637 1094.07 257.557 1085.09 245.434C1081.4 251.495 1077.18 256.546 1074.54 263.619C1071.37 270.69 1068.73 276.752 1066.62 284.33L1055.53 277.763C1057.11 271.701 1058.7 267.155 1061.34 261.092C1062.39 258.062 1066.09 251.495 1068.2 246.444C1061.34 251.495 1055 255.032 1048.14 259.578C1041.8 263.113 1037.58 265.637 1030.19 265.637C1027.55 265.637 1024.38 262.102 1025.44 254.022C1026.49 249.979 1034.41 238.864 1034.94 232.299C1034.94 228.257 1022.27 226.741 1020.16 224.722C1019.1 223.206 1019.1 222.195 1019.1 221.185C1013.29 225.228 1010.13 229.268 1004.84 233.816C999.041 239.875 994.819 244.423 989.539 249.474ZM536.033 252.504C539.202 253.009 545.537 247.958 548.703 243.412C551.872 240.38 556.097 236.34 556.622 232.299C557.15 228.764 559.263 223.206 556.622 221.185C552.928 219.166 546.593 225.228 541.842 229.268C537.617 233.816 533.394 239.875 531.81 243.917C531.282 247.452 532.338 251.495 536.033 252.504ZM923.016 262.102C927.237 266.142 940.968 255.032 948.882 247.452C955.751 240.886 965.247 226.741 965.247 226.741C951.523 226.741 943.079 234.319 935.158 241.393C929.878 246.444 919.317 257.557 923.016 262.102Z" fill="#282828"/>
<path fill-rule="evenodd" clip-rule="evenodd" d="M411.438 137.329C423.055 125.711 460.009 106.013 494.325 95.9081C515.443 89.3422 541.842 85.3026 563.486 83.7831C583.55 83.2767 612.056 88.8357 613.112 101.461C614.697 109.546 596.22 118.639 577.212 127.731C558.735 136.323 534.976 142.888 497.494 152.994C468.457 161.073 450.508 166.632 420.414 172.691C413.023 174.205 407.216 176.224 399.296 177.237C408.272 179.257 414.607 181.783 423.583 185.32C433.084 188.35 440.476 192.393 449.451 197.443C497.494 194.414 527.588 193.403 576.156 193.908C620.504 194.917 646.903 195.422 691.249 198.455L688.61 205.021C644.788 203 618.391 201.484 574.574 201.484C532.866 200.978 507.524 202.495 465.816 204.01C471.623 206.537 484.821 215.628 492.215 225.228C497.494 232.299 503.829 238.361 503.829 248.969C502.245 265.132 489.046 275.236 473.21 282.814C457.369 291.4 442.06 294.937 417.245 298.98C389.793 303.525 360.227 303.525 350.726 303.02C340.696 302.01 330.136 300.493 323.798 299.988L266.783 399L253.584 390.917L310.072 297.464C300.042 297.969 284.203 292.413 270.477 285.846C260.976 281.3 252 275.236 252 262.607C252 253.009 259.919 244.928 269.421 238.361C282.094 230.784 290.013 227.246 304.796 223.206C324.326 217.65 343.334 212.596 359.173 211.083L373.428 186.328L345.447 182.793L345.975 177.237C353.895 176.731 359.173 176.224 366.565 175.218C372.9 174.205 378.179 172.691 384.514 171.678C392.433 157.534 404.575 145.415 411.438 137.329ZM522.306 96.4146C491.687 102.981 468.457 112.579 445.757 125.204C430.444 133.79 414.607 148.948 400.881 168.652C437.309 161.579 459.484 156.527 494.853 145.921C526.531 137.329 552.928 129.25 576.684 119.145C587.244 115.606 593.051 112.579 596.22 109.04C597.802 107.527 603.608 105.507 603.608 100.961C603.608 96.4146 597.276 94.8952 594.635 94.8952C565.598 89.3422 549.231 91.362 522.306 96.4146ZM399.825 203.505C413.023 201.484 418.302 200.473 428.859 199.968C420.942 195.928 415.661 193.908 407.216 191.887C399.825 190.371 394.546 188.855 387.68 188.35L377.122 208.051C385.042 206.537 388.736 205.526 399.825 203.505ZM315.881 285.846L354.423 221.69C346.501 221.69 313.243 228.257 290.541 237.856C277.869 243.917 262.56 253.514 262.56 262.102C262.56 271.701 272.064 275.742 281.037 279.279C291.069 284.33 310.072 285.846 315.881 285.846ZM331.72 287.36C356.004 290.392 370.259 290.392 394.546 288.875C425.693 287.36 435.725 284.33 453.674 277.763C471.623 272.207 490.103 262.102 490.103 248.969C490.631 237.856 473.21 222.701 461.594 214.618C456.84 211.083 448.923 208.051 445.757 207.545C432.556 208.051 422.527 209.061 408.272 211.083C395.074 212.596 386.626 215.123 373.428 218.155L331.72 287.36Z" fill="#282828"/>
<path d="M128.196 299.502C136.144 295.798 147.657 287.335 154.468 283.104C154.046 280.459 153.899 277.52 154.111 274.505C145.031 281.265 135.232 287.581 132.739 286.806C128.764 285.218 134.443 274.639 138.415 269.347C142.956 260.885 150.903 249.774 154.879 246.072L142.956 236.549C135.576 245.543 129.332 251.361 121.384 260.885C114.005 268.818 106.057 276.227 99.2452 282.043C98.6774 277.283 98.1097 277.283 98.1097 271.993C99.813 260.885 119.116 227.025 133.875 200.575C173.045 134.976 197.453 94.2433 244 33.4066L235.49 26C193.481 83.1367 152.039 147.674 105.492 228.084C97.5419 242.897 93.5694 254.005 83.9183 266.703L83.8565 266.78C82.173 268.869 80.4861 270.963 78.2417 273.052L80.496 274.494L84.4861 276.754C82.2142 279.929 77.1061 301.619 78.8095 305.321C79.378 308.496 83.9183 307.967 86.7573 307.967C90.1647 307.437 94.1371 297.388 98.6774 293.154C103.773 286.824 110.56 282.071 117.352 277.849C117.376 277.824 117.396 277.812 117.412 277.812C117.392 277.824 117.372 277.837 117.352 277.849C116.532 278.697 111.28 293.788 115.141 297.388C117.98 301.09 123.656 301.09 128.196 299.502Z" fill="#282828"/>
<path fill-rule="evenodd" clip-rule="evenodd" d="M216.185 271.993C224.133 266.701 231.805 259.237 238.617 252.363V245.362C225.559 260.175 225.269 258.768 208.238 270.405C200.29 275.695 194.046 281.516 184.397 285.218C180.988 285.747 178.151 287.864 175.311 286.806C170.771 285.218 170.771 279.399 171.339 275.168C171.907 267.23 180.988 255.066 183.262 254.534C185.531 259.826 191.207 263.528 196.885 263.528C201.993 263.528 206.534 258.768 211.077 256.124C217.889 250.303 222.429 243.955 224.133 235.49C224.701 229.142 225.269 222.265 221.861 217.505C219.024 213.271 213.349 210.098 208.238 211.683C196.318 215.388 188.938 221.207 179.854 230.201C171.339 240.25 167.366 246.601 158.851 259.297C155.913 263.859 154.477 269.298 154.111 274.505C156.873 269.865 158.625 269.281 163.394 267.232L154.468 283.104C154.585 283.832 154.722 284.539 154.878 285.218C157.147 293.683 162.823 297.388 171.339 297.388C184.397 297.388 198.021 283.633 216.185 271.993ZM206.232 244.254C202.828 249.015 196.016 254.304 192.609 253.775C188.636 252.719 187.501 248.485 188.068 244.783C189.772 240.55 194.313 234.205 198.856 229.442C203.964 225.211 210.775 218.863 214.748 220.977C217.587 223.094 215.316 228.915 214.748 232.617C214.183 236.846 209.642 241.077 206.235 244.251L206.232 244.254Z" fill="#282828"/>
<path d="M154.538 273.365L151.618 280.366L152.202 282.7L155.122 283.283L162.712 275.699L165.048 265.781L158.041 268.115L154.538 273.365Z" fill="#282828"/>
<path d="M22.0795 299.713C16.7547 298.804 14.8475 293.933 16.3578 285.099C17.4317 278.817 19.9238 271.16 23.8341 262.13C27.7779 252.903 32.6594 242.927 38.4785 232.202C44.2976 221.476 50.5133 210.617 57.1256 199.623C63.7715 188.433 70.4108 177.645 77.0434 167.261C83.6761 156.877 89.7611 147.51 95.2985 139.161C100.957 130.833 105.587 124.148 109.189 119.106C109.437 116.926 110.213 114.937 111.517 113.139C112.942 111.361 114.135 109.848 115.096 108.597C110.927 107.482 106.681 106.454 102.358 105.514C98.069 104.378 93.8064 103.449 89.5708 102.726C87.3925 102.354 84.1688 101.905 79.8996 101.378C75.6305 100.851 70.8269 100.537 65.4889 100.434C60.3055 100.155 54.9777 100.357 49.5055 101.039C44.0669 101.525 38.8738 102.76 33.9263 104.745C29.1334 106.553 25.0534 109.291 21.6862 112.96C18.3526 116.431 16.1992 121.014 15.2259 126.707C14.0512 133.578 14.1707 140.165 15.5842 146.467C17.1523 152.594 19.3824 158.127 22.2745 163.065C25.2877 168.024 28.3309 172.08 31.4041 175.231C31.6145 175.396 31.8783 175.693 32.1956 176.123C32.3753 176.367 32.5721 176.653 32.7861 176.982C33.5326 177.715 33.8386 178.475 33.7044 179.26C33.6373 179.653 33.4659 179.926 33.1903 180.081C32.9483 180.04 32.7668 180.009 32.6457 179.989C32.1617 179.906 31.6339 179.715 31.0624 179.415C30.6454 178.94 29.5797 178.253 29.5797 178.253C26.0763 175.433 22.5256 171.796 18.9277 167.343C15.3633 162.694 12.6156 157.275 10.6845 151.086C8.78689 144.701 8.49255 137.68 9.80144 130.024C10.3049 127.079 11.1444 123.99 12.32 120.756C15.7462 111.643 19.9427 104.58 24.9096 99.5689C30.031 94.3818 35.5225 90.6721 41.3843 88.4399C47.367 86.2284 53.2862 85.1172 59.1418 85.1065C65.152 84.92 70.7589 85.2709 75.9627 86.159C83.5867 87.4603 90.9993 89.6347 98.2003 92.6821C105.435 95.5332 112.619 98.6788 119.753 102.119C120.593 100.848 121.45 99.4789 122.323 98.0116C123.318 96.5651 124.279 95.3148 125.206 94.2609C126.443 92.8556 128.157 91.9359 130.349 91.5018C132.54 91.0677 134.241 90.9539 135.451 91.1604C135.935 91.2431 136.628 91.5633 137.529 92.1212C138.463 92.4827 138.83 93.2524 138.629 94.4303C138.562 94.8229 137.876 95.9182 136.572 97.7161C135.269 99.514 133.904 101.302 132.48 103.079C131.176 104.877 130.292 106.039 129.828 106.566C136.424 109.51 143.097 112.367 149.848 115.135C156.753 117.728 163.715 119.623 170.734 120.821C172.791 121.172 174.482 120.754 175.806 119.566C177.251 118.398 178.377 117.277 179.183 116.202C180.144 114.952 180.988 114.389 181.714 114.513C182.561 114.657 183.23 115.479 183.722 116.977C184.246 118.279 184.391 119.617 184.156 120.991C183.988 121.972 183.673 122.727 183.209 123.254C182.779 123.584 182.288 123.905 181.737 124.215C177.206 126.674 173.039 131.014 169.236 137.234C165.432 143.454 161.834 149.204 158.44 154.484C158.098 155.032 157.506 155.941 156.666 157.212C155.86 158.287 155.214 158.783 154.73 158.7C154.367 158.638 154.27 158.116 154.438 157.135C154.874 154.583 155.922 151.731 157.582 148.58C159.396 145.253 161.133 142.013 162.792 138.862C164.486 135.514 165.517 132.761 165.886 130.601C166.087 129.423 165.842 128.674 165.149 128.354C163.381 127.042 161.458 125.905 159.38 124.945C157.424 124.005 155.467 123.065 153.51 122.124C148.871 120.12 144.259 118.323 139.673 116.732C135.121 114.945 130.492 113.246 125.786 111.634C118.064 121.833 109.822 133.256 101.058 145.903C92.3288 158.354 83.6027 171.512 74.8802 185.379C66.2787 199.266 58.2655 213.354 50.8406 227.644C43.5367 241.955 37.4227 255.862 32.4984 269.367C31.5781 271.836 30.6847 274.512 29.8182 277.395C28.9182 280.474 28.2332 283.388 27.7634 286.136C27.4613 287.903 27.324 289.799 27.3514 291.824C27.3789 293.849 28.0582 294.975 29.3894 295.202C30.3575 295.368 31.376 295.238 32.4448 294.815C33.6011 294.608 34.7238 294.598 35.813 294.784C35.934 294.804 36.176 294.845 36.5391 294.907C36.9021 294.969 37.0501 295.197 36.9829 295.589C36.8487 296.375 35.669 297.082 33.4439 297.713C31.3063 298.56 29.0375 299.082 26.6375 299.279C24.3249 299.692 22.8056 299.837 22.0795 299.713Z" fill="#282828"/>
<path d="M26.3945 175.387L28.8672 173.011L34.9983 178.446L32.2095 181.428L26.3945 175.387Z" fill="#282828"/>
<path d="M34.3145 297.395L33.1124 294.655L39.4838 291.248L41.0883 294.427L34.3145 297.395Z" fill="#282828"/>
<path fill-rule="evenodd" clip-rule="evenodd" d="M980.539 242.474C975.258 246.514 972.089 250.051 966.808 254.092C959.417 261.167 945.163 267.731 942.523 267.731C938.83 266.72 932.491 261.166 931.439 254.597C929.321 257.629 918.767 264.196 910.846 263.185C903.984 262.68 898.703 259.142 895.534 253.586C895.534 253.586 880.228 264.701 865.974 263.69C855.413 262.68 856.995 249.041 859.106 242.474C859.106 246.009 828.488 263.69 822.154 263.185C815.29 262.68 811.596 259.142 811.596 245.504C803.676 250.557 798.398 255.102 791.532 261.669C785.725 267.731 780.975 272.279 775.167 279.351L767.248 272.784L777.806 251.567C770.945 256.113 766.192 259.142 759.328 263.69C752.994 267.731 749.297 271.771 741.905 275.308C737.683 276.825 732.404 276.825 729.763 273.29C726.069 269.752 731.347 254.597 731.875 254.597C725.541 258.637 719.205 263.185 714.452 269.247C710.23 273.29 706.535 282.886 703.366 283.392C700.726 283.392 696.503 283.897 695.975 280.865C694.391 277.33 699.141 256.619 701.254 253.586L692.809 259.65C686.999 264.701 683.305 268.236 678.026 272.279C669.579 278.846 663.241 284.4 652.683 286.423C646.348 287.937 640.541 288.442 634.734 285.918C627.871 283.897 622.59 278.846 619.423 271.771C616.255 274.3 613.617 275.814 607.807 277.33C603.056 278.846 598.834 280.36 595.665 275.814C591.442 269.752 594.609 258.132 595.665 257.124C594.08 258.132 584.051 266.217 578.772 272.279C575.075 276.825 570.853 280.865 567.156 285.413L557.126 280.865L568.74 247.022C562.405 253.586 556.598 258.132 549.207 263.185C532.314 274.3 519.644 287.434 507.499 287.434C499.58 287.434 494.301 283.897 492.191 275.814C490.607 268.742 491.135 258.637 495.885 251.062C503.805 238.939 507.499 232.875 515.419 223.278C523.866 214.69 530.73 209.134 541.816 205.596C546.569 204.083 551.847 207.113 554.486 211.155C557.654 215.701 557.126 222.268 556.598 228.329C555.014 236.412 550.791 242.474 544.456 248.032C540.231 250.557 536.008 255.102 531.258 255.102C525.976 255.102 520.698 251.567 518.588 246.514C516.473 247.022 508.027 258.637 507.499 266.217C506.971 270.257 506.971 275.814 511.194 277.33C513.834 278.34 516.473 276.319 519.644 275.814C528.617 272.279 534.424 266.72 541.816 261.669C557.655 250.557 567.156 241.969 579.3 227.824L588.276 233.38L577.188 261.669C585.636 254.597 591.442 249.041 598.834 241.463C607.807 231.864 614.673 225.805 622.59 215.195L631.037 221.257C624.705 228.834 622.062 235.907 617.311 243.99C613.088 251.567 606.225 263.69 610.45 266.72C612.032 269.247 616.255 265.712 619.423 263.69C623.648 252.578 628.399 245.504 636.847 235.907C646.348 225.805 656.908 217.722 667.466 212.166C673.273 209.134 679.082 208.123 683.305 211.66C688.055 214.185 690.168 219.741 688.584 225.299C686.471 232.875 682.249 236.412 674.857 238.939C671.688 240.958 666.938 240.452 664.828 237.928C663.241 234.393 663.241 230.351 664.828 227.824C660.074 229.34 650.573 235.907 644.764 243.99C638.957 251.567 634.206 257.629 634.206 267.731C634.206 273.29 639.485 278.34 645.292 278.846C655.852 280.865 665.884 273.795 674.857 268.236C679.082 264.701 682.249 262.175 685.943 258.637L688.584 256.619C689.64 255.607 690.168 255.102 692.809 253.084C693.863 251.567 694.919 250.557 695.447 249.546V250.051C697.56 248.032 699.141 246.009 700.726 243.99C709.702 231.864 713.396 221.257 720.79 207.113C764.079 130.329 802.62 68.7039 841.689 14.1447L849.603 21.2171C806.315 79.3095 783.615 118.204 747.186 180.845C733.46 206.101 715.508 238.434 713.924 249.041C713.924 254.092 714.452 254.092 714.98 258.637C721.316 253.084 728.707 246.009 735.57 238.434C742.961 229.34 748.768 223.784 755.631 215.195L766.72 224.289C763.023 227.824 755.631 238.434 751.409 246.514C747.714 251.567 742.433 261.669 746.13 263.185C749.297 264.196 765.136 252.578 774.639 244.495C785.725 235.401 793.645 228.329 802.62 216.206L814.762 216.711L802.62 241.463C808.953 236.412 811.596 232.875 818.985 227.319C825.323 223.784 826.376 222.773 829.546 219.741C830.599 218.228 835.879 214.69 838.519 216.711C843.271 219.741 839.578 226.816 837.467 229.34C833.768 235.401 829.546 240.452 828.488 246.514C825.851 259.142 850.133 240.452 860.164 231.864C869.138 225.299 880.757 213.176 889.201 206.607C891.312 204.588 896.592 204.588 898.18 207.618C900.814 210.65 898.18 213.176 895.534 216.206C888.142 225.805 876.006 241.463 873.889 248.032C871.778 253.084 873.889 253.084 874.947 254.597C877.058 256.113 881.81 253.586 885.508 251.567C889.73 249.546 896.592 246.514 897.122 246.009C900.285 238.434 908.735 229.845 917.708 222.773C928.269 214.69 933.02 211.66 945.163 206.607C951.496 204.083 960.475 201.051 964.168 206.607C965.756 209.639 964.168 214.69 963.645 216.206C965.226 215.195 968.919 214.69 969.448 216.711C972.089 221.257 968.919 223.278 967.867 226.31C964.697 233.886 958.887 239.444 955.195 245.504C954.142 247.022 953.613 250.051 955.195 250.557C958.887 251.062 966.279 245.504 972.618 239.444L989.512 224.289C995.321 218.73 1000.07 213.176 1005.88 207.618C1007.46 206.607 1019.08 178.32 1030.69 172.257C1033.86 170.237 1040.72 174.278 1040.72 178.826C1041.77 187.917 1020.66 206.101 1021.72 207.618C1028.58 212.166 1033.86 212.166 1037.55 218.228C1042.3 228.329 1023.83 240.958 1026.47 247.022C1028.58 251.062 1054.45 234.899 1068.18 221.257C1069.23 220.246 1099.32 164.678 1119.38 130.329C1149.48 79.3094 1169.54 49.5066 1202.8 0L1216 6.57201C1182.74 53.5463 1163.73 83.349 1133.64 133.362C1116.22 163.671 1104.61 182.866 1088.23 214.185C1097.21 209.639 1103.02 206.607 1112.52 203.072C1124.13 198.526 1132.06 196 1144.73 192.968L1148.42 203.578C1136.8 206.101 1128.36 209.134 1116.74 214.185C1105.66 219.236 1099.32 222.268 1089.29 228.329C1097.74 240.958 1104.61 248.535 1115.69 259.142C1128.36 272.279 1137.86 280.865 1153.7 290.969L1144.2 301.576C1127.83 290.969 1117.8 282.886 1103.55 269.247C1092.46 258.637 1085.07 250.557 1076.09 238.434C1072.4 244.495 1068.18 249.546 1065.54 256.619C1062.37 263.69 1059.73 269.752 1057.62 277.33L1046.53 270.763C1048.11 264.701 1049.7 260.155 1052.34 254.092C1053.39 251.062 1057.09 244.495 1059.2 239.444C1052.34 244.495 1046 248.032 1039.14 252.578C1032.8 256.113 1028.58 258.637 1021.19 258.637C1018.55 258.637 1015.38 255.102 1016.44 247.022C1017.49 242.979 1025.41 231.864 1025.94 225.299C1025.94 221.257 1013.27 219.741 1011.16 217.722C1010.1 216.206 1010.1 215.195 1010.1 214.185C1004.29 218.228 1001.13 222.268 995.845 226.816C990.041 232.875 985.819 237.423 980.539 242.474ZM527.033 245.504C530.202 246.009 536.537 240.958 539.703 236.412C542.872 233.38 547.097 229.34 547.622 225.299C548.15 221.764 550.263 216.206 547.622 214.185C543.928 212.166 537.593 218.228 532.842 222.268C528.617 226.816 524.394 232.875 522.81 236.917C522.282 240.452 523.338 244.495 527.033 245.504ZM914.016 255.102C918.237 259.142 931.968 248.032 939.882 240.452C946.751 233.886 956.247 219.741 956.247 219.741C942.523 219.741 934.079 227.319 926.158 234.393C920.878 239.444 910.317 250.557 914.016 255.102Z" fill="#CC0A20"/>
<path fill-rule="evenodd" clip-rule="evenodd" d="M402.438 130.329C414.055 118.711 451.009 99.0132 485.325 88.9081C506.443 82.3422 532.842 78.3026 554.486 76.7831C574.55 76.2767 603.056 81.8357 604.112 94.461C605.697 102.546 587.22 111.639 568.212 120.731C549.735 129.323 525.976 135.888 488.494 145.994C459.457 154.073 441.508 159.632 411.414 165.691C404.023 167.205 398.216 169.224 390.296 170.237C399.272 172.257 405.607 174.783 414.583 178.32C424.084 181.35 431.476 185.393 440.451 190.443C488.494 187.414 518.588 186.403 567.156 186.908C611.504 187.917 637.903 188.422 682.249 191.455L679.61 198.021C635.788 196 609.391 194.484 565.574 194.484C523.866 193.978 498.524 195.495 456.816 197.01C462.623 199.537 475.821 208.628 483.215 218.228C488.494 225.299 494.829 231.361 494.829 241.969C493.245 258.132 480.046 268.236 464.21 275.814C448.369 284.4 433.06 287.937 408.245 291.98C380.793 296.525 351.227 296.525 341.726 296.02C331.696 295.01 321.136 293.493 314.798 292.988L257.783 392L244.584 383.917L301.072 290.464C291.042 290.969 275.203 285.413 261.477 278.846C251.976 274.3 243 268.236 243 255.607C243 246.009 250.919 237.928 260.421 231.361C273.094 223.784 281.013 220.246 295.796 216.206C315.326 210.65 334.334 205.596 350.173 204.083L364.428 179.328L336.447 175.793L336.975 170.237C344.895 169.731 350.173 169.224 357.565 168.218C363.9 167.205 369.179 165.691 375.514 164.678C383.433 150.534 395.575 138.415 402.438 130.329ZM513.306 89.4146C482.687 95.9805 459.457 105.579 436.757 118.204C421.444 126.79 405.607 141.948 391.881 161.652C428.309 154.579 450.484 149.527 485.853 138.921C517.531 130.329 543.928 122.25 567.684 112.145C578.244 108.606 584.051 105.579 587.22 102.04C588.802 100.527 594.608 98.5068 594.608 93.9607C594.608 89.4146 588.276 87.8952 585.635 87.8952C556.598 82.3422 540.231 84.362 513.306 89.4146ZM390.825 196.505C404.023 194.484 409.302 193.473 419.859 192.968C411.942 188.928 406.661 186.908 398.216 184.887C390.825 183.371 385.546 181.855 378.68 181.35L368.122 201.051C376.042 199.537 379.736 198.526 390.825 196.505ZM306.881 278.846L345.423 214.69C337.501 214.69 304.243 221.257 281.541 230.856C268.869 236.917 253.56 246.514 253.56 255.102C253.56 264.701 263.064 268.742 272.037 272.279C282.069 277.33 301.072 278.846 306.881 278.846ZM322.72 280.36C347.004 283.392 361.259 283.392 385.546 281.875C416.693 280.36 426.725 277.33 444.674 270.763C462.623 265.207 481.103 255.102 481.103 241.969C481.631 230.856 464.21 215.701 452.594 207.618C447.84 204.083 439.923 201.051 436.757 200.545C423.556 201.051 413.527 202.061 399.272 204.083C386.074 205.596 377.626 208.123 364.428 211.155L322.72 280.36Z" fill="#CC0A20"/>
<path d="M119.196 292.502C127.144 288.798 138.657 280.335 145.468 276.104C145.046 273.459 144.899 270.52 145.111 267.505C136.031 274.265 126.232 280.581 123.739 279.806C119.764 278.218 125.443 267.639 129.415 262.347C133.956 253.885 141.903 242.774 145.879 239.072L133.956 229.549C126.576 238.543 120.332 244.361 112.384 253.885C105.005 261.818 97.0573 269.227 90.2452 275.043C89.6774 270.283 89.1097 270.283 89.1097 264.993C90.813 253.885 110.116 220.025 124.875 193.575C164.045 127.976 188.453 87.2433 235 26.4066L226.49 19C184.481 76.1367 143.039 140.674 96.4923 221.084C88.5419 235.897 84.5694 247.005 74.9183 259.703L74.8565 259.78C73.173 261.869 71.4861 263.963 69.2417 266.052L71.496 267.494L75.4861 269.754C73.2142 272.929 68.1061 294.619 69.8095 298.321C70.378 301.496 74.9183 300.967 77.7573 300.967C81.1647 300.437 85.1371 290.388 89.6774 286.154C94.7733 279.824 101.56 275.071 108.352 270.849C108.376 270.824 108.396 270.812 108.412 270.812C108.392 270.824 108.372 270.837 108.352 270.849C107.532 271.697 102.28 286.788 106.141 290.388C108.98 294.09 114.656 294.09 119.196 292.502Z" fill="#CC0A20"/>
<path fill-rule="evenodd" clip-rule="evenodd" d="M207.185 264.993C215.133 259.701 222.805 252.237 229.617 245.363V238.362C216.559 253.175 216.269 251.768 199.238 263.405C191.29 268.695 185.046 274.516 175.397 278.218C171.988 278.747 169.151 280.864 166.311 279.806C161.771 278.218 161.771 272.399 162.339 268.168C162.907 260.23 171.988 248.066 174.262 247.534C176.531 252.826 182.207 256.528 187.885 256.528C192.993 256.528 197.534 251.768 202.077 249.124C208.889 243.303 213.429 236.955 215.133 228.49C215.701 222.142 216.269 215.265 212.861 210.505C210.024 206.271 204.349 203.098 199.238 204.683C187.318 208.388 179.938 214.207 170.854 223.201C162.339 233.25 158.366 239.601 149.851 252.297C146.913 256.859 145.477 262.298 145.111 267.505C147.873 262.865 149.625 262.281 154.394 260.232L145.468 276.104C145.585 276.832 145.722 277.539 145.878 278.218C148.147 286.683 153.823 290.388 162.339 290.388C175.397 290.388 189.021 276.633 207.185 264.993ZM197.232 237.254C193.828 242.015 187.016 247.304 183.609 246.775C179.636 245.719 178.501 241.485 179.068 237.783C180.772 233.55 185.313 227.205 189.856 222.442C194.964 218.211 201.775 211.863 205.748 213.977C208.587 216.094 206.316 221.915 205.748 225.617C205.183 229.846 200.642 234.077 197.235 237.251L197.232 237.254Z" fill="#CC0A20"/>
<path d="M145.538 266.365L142.618 273.366L143.202 275.7L146.122 276.283L153.712 268.699L156.048 258.781L149.041 261.115L145.538 266.365Z" fill="#CC0A20"/>
<path d="M13.0795 292.713C7.75474 291.804 5.8475 286.933 7.35775 278.099C8.43172 271.817 10.9238 264.16 14.8341 255.13C18.7779 245.903 23.6594 235.927 29.4785 225.202C35.2976 214.476 41.5133 203.617 48.1256 192.623C54.7715 181.433 61.4108 170.645 68.0434 160.261C74.6761 149.877 80.7611 140.51 86.2985 132.161C91.9568 123.833 96.5871 117.148 100.189 112.106C100.437 109.926 101.213 107.937 102.517 106.139C103.942 104.361 105.135 102.848 106.096 101.597C101.927 100.482 97.6815 99.4542 93.3584 98.5143C89.069 97.3781 84.8064 96.4485 80.5708 95.7256C78.3925 95.3538 75.1688 94.9046 70.8996 94.378C66.6305 93.8514 61.8269 93.5366 56.4889 93.4337C51.3055 93.1551 45.9777 93.357 40.5055 94.0393C35.0669 94.5254 29.8738 95.7605 24.9263 97.7446C20.1334 99.5531 16.0534 102.291 12.6862 105.96C9.3526 109.431 7.19917 114.014 6.22589 119.707C5.05124 126.578 5.17067 133.165 6.58417 139.467C8.15225 145.594 10.3824 151.127 13.2745 156.065C16.2877 161.024 19.3309 165.08 22.4041 168.231C22.6145 168.396 22.8783 168.693 23.1956 169.123C23.3753 169.367 23.5721 169.653 23.7861 169.982C24.5326 170.715 24.8386 171.475 24.7044 172.26C24.6373 172.653 24.4659 172.926 24.1903 173.081C23.9483 173.04 23.7668 173.009 23.6457 172.989C23.1617 172.906 22.6339 172.715 22.0624 172.415C21.6454 171.94 20.5797 171.253 20.5797 171.253C17.0763 168.433 13.5256 164.796 9.92771 160.343C6.36334 155.694 3.61559 150.275 1.68446 144.086C-0.213109 137.701 -0.507448 130.68 0.801441 123.024C1.30486 120.079 2.14438 116.99 3.32001 113.756C6.7462 104.643 10.9427 97.5803 15.9096 92.5689C21.031 87.3818 26.5225 83.6721 32.3843 81.4399C38.367 79.2284 44.2862 78.1172 50.1418 78.1065C56.152 77.92 61.7589 78.2709 66.9627 79.159C74.5867 80.4603 81.9993 82.6347 89.2003 85.6821C96.4348 88.5332 103.619 91.6788 110.753 95.1189C111.593 93.8479 112.45 92.4789 113.323 91.0116C114.318 89.5651 115.279 88.3148 116.206 87.2609C117.443 85.8556 119.157 84.9359 121.349 84.5018C123.54 84.0677 125.241 83.9539 126.451 84.1604C126.935 84.2431 127.628 84.5633 128.529 85.1212C129.463 85.4827 129.83 86.2524 129.629 87.4303C129.562 87.8229 128.876 88.9182 127.572 90.7161C126.269 92.514 124.904 94.3015 123.48 96.0788C122.176 97.8767 121.292 99.0391 120.828 99.5661C127.424 102.51 134.097 105.367 140.848 108.135C147.753 110.728 154.715 112.623 161.734 113.821C163.791 114.172 165.482 113.754 166.806 112.566C168.251 111.398 169.377 110.277 170.183 109.202C171.144 107.952 171.988 107.389 172.714 107.513C173.561 107.657 174.23 108.479 174.722 109.977C175.246 111.279 175.391 112.617 175.156 113.991C174.988 114.972 174.673 115.727 174.209 116.254C173.779 116.584 173.288 116.905 172.737 117.215C168.206 119.674 164.039 124.014 160.236 130.234C156.432 136.454 152.834 142.204 149.44 147.484C149.098 148.032 148.506 148.941 147.666 150.212C146.86 151.287 146.214 151.783 145.73 151.7C145.367 151.638 145.27 151.116 145.438 150.135C145.874 147.583 146.922 144.731 148.582 141.58C150.396 138.253 152.133 135.013 153.792 131.862C155.486 128.514 156.517 125.761 156.886 123.601C157.087 122.423 156.842 121.674 156.149 121.354C154.381 120.042 152.458 118.905 150.38 117.945C148.424 117.005 146.467 116.065 144.51 115.124C139.871 113.12 135.259 111.323 130.673 109.732C126.121 107.945 121.492 106.246 116.786 104.634C109.064 114.833 100.822 126.256 92.0584 138.903C83.3288 151.354 74.6027 164.512 65.8802 178.379C57.2787 192.266 49.2655 206.354 41.8406 220.644C34.5367 234.955 28.4227 248.862 23.4984 262.367C22.5781 264.836 21.6847 267.512 20.8182 270.395C19.9182 273.474 19.2332 276.388 18.7634 279.136C18.4613 280.903 18.324 282.799 18.3514 284.824C18.3789 286.849 19.0582 287.975 20.3894 288.202C21.3575 288.368 22.376 288.238 23.4448 287.815C24.6011 287.608 25.7238 287.598 26.813 287.784C26.934 287.804 27.176 287.845 27.5391 287.907C27.9021 287.969 28.0501 288.197 27.9829 288.589C27.8487 289.375 26.669 290.082 24.4439 290.713C22.3063 291.56 20.0375 292.082 17.6375 292.279C15.3249 292.692 13.8056 292.837 13.0795 292.713Z" fill="#CC0A20"/>
<path d="M17.3945 168.387L19.8672 166.011L25.9983 171.446L23.2095 174.428L17.3945 168.387Z" fill="#CC0A20"/>
<path d="M25.3145 290.395L24.1124 287.655L30.4838 284.248L32.0883 287.427L25.3145 290.395Z" fill="#CC0A20"/>
</svg>
